<svg width="1020" height="168" viewBox="0 0 1020 168" fill="none" xmlns="http://www.w3.org/2000/svg">
<path d="M348 0C333.068 0 318.747 5.89997 308.188 16.402C297.629 26.904 291.697 41.1479 291.697 56H236.303V0C221.37 0 207.049 5.89997 196.491 16.402C185.932 26.904 180 41.1479 180 56V56V168C194.932 168 209.253 162.1 219.812 151.598C230.371 141.096 236.303 126.852 236.303 112H291.697V168C306.63 168 320.951 162.1 331.509 151.598C342.068 141.096 348 126.852 348 112V0Z" fill="black"/>
<path d="M1020 0H907V168H963.61C978.585 167.943 992.928 162.017 1003.5 151.522C1014.07 141.026 1020 126.815 1020 112H963.61C978.585 111.943 992.928 106.017 1003.5 95.5215C1014.07 85.0257 1020 70.8146 1020 56H963.61C978.585 55.9427 992.928 50.0174 1003.5 39.5215C1014.07 29.0257 1020 14.8146 1020 0Z" fill="black"/>
<path d="M655.032 0V51.099C653.816 37.2703 647.508 24.3867 637.334 14.948C627.159 5.50933 613.842 0.188538 599.968 0.0180802V0.0180802H544V168H599.968V120.712C602.037 133.852 608.714 145.826 618.804 154.489C628.894 163.152 641.737 167.939 655.032 167.991H655.258C670.062 167.931 684.24 162.006 694.687 151.511C705.135 141.017 711 126.808 711 111.997V111.997V56.003C711.001 48.649 709.554 41.3668 706.742 34.5722C703.93 27.7777 699.808 21.604 694.611 16.4035C689.414 11.203 683.243 7.07771 676.452 4.26318C669.662 1.44866 662.383 -9.56555e-08 655.032 0V0Z" fill="black"/>
<path d="M166 56C166 41.1869 160.17 26.9772 149.785 16.4816C139.4 5.98607 125.308 0.0597302 110.592 0H54.9595C40.3218 0.178252 26.3437 6.15683 16.0557 16.6396C5.76773 27.1224 -0.00107095 41.2645 1.49127e-07 56V56V112C-0.00107095 126.735 5.76773 140.878 16.0557 151.36C26.3437 161.843 40.3218 167.822 54.9595 168H110.592C125.308 167.94 139.4 162.014 149.785 151.518C160.17 141.023 166 126.813 166 112H110.368C97.1514 112.052 84.3855 116.839 74.3562 125.503C64.3269 134.167 57.6894 146.142 55.6324 159.284V56C69.4239 55.8295 82.6608 50.5082 92.7747 41.0685C102.889 31.6287 109.158 18.7437 110.368 4.91355V56H166Z" fill="black"/>
<path d="M473.924 0H417.622C402.808 0.178252 388.661 6.15683 378.249 16.6396C367.837 27.1224 361.999 41.2645 362 56V56V168C376.932 168 391.253 162.1 401.812 151.598C412.371 141.096 418.303 126.852 418.303 112H473.697V168C488.63 168 502.951 162.1 513.509 151.598C524.068 141.096 530 126.852 530 112V112V56C530 41.1869 524.099 26.9772 513.59 16.4816C503.08 5.98607 488.817 0.0597302 473.924 0V0ZM418.303 56C432.26 55.8295 445.657 50.5082 455.892 41.0685C466.128 31.6287 472.474 18.7437 473.697 4.91355V56H418.303Z" fill="black"/>
<path d="M893 0H780.395C765.62 0.237047 751.532 6.24149 741.168 16.7179C730.805 27.1944 724.998 41.3031 725 56V56V112C724.999 126.735 730.837 140.878 741.249 151.36C751.661 161.843 765.808 167.822 780.622 168V168H836.924C851.817 167.94 866.08 162.014 876.59 151.518C887.099 141.023 893 126.813 893 112V112C893 97.1869 887.099 82.9772 876.59 72.4817C866.08 61.9861 851.817 56.0597 836.924 56H836.697C851.63 56 865.951 50.1 876.509 39.598C887.068 29.096 893 14.8521 893 0V0ZM781.303 112V64.7071C783.384 77.8486 790.102 89.8237 800.252 98.4877C810.402 107.152 823.322 111.938 836.697 111.991H781.303V112Z" fill="black"/>
</svg>
