<svg width="1422" height="170" viewBox="0 0 1422 170" fill="none" xmlns="http://www.w3.org/2000/svg">
<path d="M836.924 0H780.622C765.808 0.180374 751.661 6.23007 741.249 16.8376C730.837 27.4452 724.999 41.7557 725 56.6667H780.622V113.333C780.622 128.362 786.553 142.776 797.112 153.403C807.671 164.03 821.992 170 836.924 170V56.6667C851.817 56.6062 866.08 50.6093 876.59 39.9888C887.099 29.3683 893 14.9894 893 0H836.924Z" fill="black"/>
<path d="M1365.92 0H1309.62C1294.81 0.180374 1280.66 6.23007 1270.25 16.8376C1259.84 27.4452 1254 41.7557 1254 56.6667H1309.62V113.333C1309.62 128.362 1315.55 142.776 1326.11 153.403C1336.67 164.03 1350.99 170 1365.92 170V56.6667C1380.82 56.6062 1395.08 50.6093 1405.59 39.9888C1416.1 29.3683 1422 14.9894 1422 0H1365.92Z" fill="black"/>
<path d="M292.592 0H236.959C222.322 0.180374 208.344 6.23018 198.056 16.8378C187.768 27.4453 181.999 41.7557 182 56.6667V113.333C181.999 128.244 187.768 142.555 198.056 153.162C208.344 163.77 222.322 169.82 236.959 170H292.592C307.308 169.94 321.4 163.943 331.785 153.322C342.17 142.702 348 128.323 348 113.333V56.6667C348 41.6772 342.17 27.2984 331.785 16.6779C321.4 6.05736 307.308 0.0604412 292.592 0ZM292.368 56.6667V108.38C291.158 94.3847 284.889 81.3464 274.775 71.7943C264.661 62.2422 251.424 56.8575 237.632 56.685L292.368 56.6667Z" fill="black"/>
<path d="M473.697 0V51.7073C472.474 37.714 466.128 24.6771 455.892 15.126C445.657 5.57492 432.26 0.190782 418.303 0.0182955H362V170H418.303V122.149C420.384 135.446 427.102 147.562 437.252 156.328C447.402 165.094 460.322 169.938 473.697 169.991H473.924C488.817 169.93 503.08 163.934 513.59 153.315C524.099 142.695 530 128.318 530 113.33V56.6697C530.001 49.2282 528.546 41.8592 525.717 34.9838C522.888 28.1084 518.741 21.8612 513.513 16.5988C508.284 11.3364 502.077 7.16196 495.246 4.31393C488.414 1.4659 481.092 -9.67942e-08 473.697 0Z" fill="black"/>
<path d="M1188.7 0V51.7073C1187.47 37.714 1181.13 24.6771 1170.89 15.126C1160.66 5.57492 1147.26 0.190782 1133.3 0.0182955H1077V170H1133.3V122.149C1135.38 135.446 1142.1 147.562 1152.25 156.328C1162.4 165.094 1175.32 169.938 1188.7 169.991H1188.92C1203.82 169.93 1218.08 163.934 1228.59 153.315C1239.1 142.695 1245 128.318 1245 113.33V56.6697C1245 49.2282 1243.55 41.8592 1240.72 34.9838C1237.89 28.1084 1233.74 21.8612 1228.51 16.5988C1223.28 11.3364 1217.08 7.16196 1210.25 4.31393C1203.41 1.4659 1196.09 -9.67942e-08 1188.7 0Z" fill="black"/>
<path d="M168 56.6667C168 41.6772 162.099 27.2984 151.59 16.6778C141.08 6.05733 126.817 0.0604412 111.924 0H55.6216C40.8076 0.180374 26.6611 6.23013 16.2492 16.8377C5.83722 27.4453 -0.00108385 41.7557 1.50924e-07 56.6667V113.333C-0.00108385 128.244 5.83722 142.555 16.2492 153.162C26.6611 163.77 40.8076 169.82 55.6216 170H111.924C126.817 169.94 141.08 163.943 151.59 153.322C162.099 142.702 168 128.323 168 113.333H111.697C98.3219 113.386 85.4022 118.23 75.252 126.997C65.1019 135.765 58.3844 147.882 56.3027 161.18V56.6667C70.2604 56.4942 83.6567 51.1095 93.8925 41.5574C104.128 32.0053 110.474 18.9669 111.697 4.97205V56.6667H168Z" fill="black"/>
<path d="M711 56.6667C711 41.6772 705.135 27.2984 694.687 16.6779C684.24 6.05736 670.062 0.0604412 655.258 0H599.291C584.565 0.180374 570.502 6.23007 560.152 16.8376C549.802 27.4452 543.999 41.7557 544 56.6667C543.999 71.5776 549.802 85.8881 560.152 96.4957C570.502 107.103 584.565 113.153 599.291 113.333H544V170H655.258C670.062 169.94 684.24 163.943 694.687 153.322C705.135 142.702 711 128.323 711 113.333C711 98.3439 705.135 83.9651 694.687 73.3445C684.24 62.724 670.062 56.7271 655.258 56.6667H711Z" fill="black"/>
<path d="M1006.92 0H950.622C935.808 0.180374 921.661 6.23013 911.249 16.8377C900.837 27.4453 894.999 41.7557 895 56.6667V170C909.932 170 924.253 164.03 934.812 153.403C945.371 142.776 951.303 128.362 951.303 113.333H1006.7V170C1021.63 170 1035.95 164.03 1046.51 153.403C1057.07 142.776 1063 128.362 1063 113.333V56.6667C1063 41.6772 1057.1 27.2984 1046.59 16.6778C1036.08 6.05733 1021.82 0.0604412 1006.92 0ZM951.303 56.6667C965.26 56.4942 978.657 51.1095 988.892 41.5574C999.128 32.0053 1005.47 18.9669 1006.7 4.97205V56.6667H951.303Z" fill="black"/>
</svg>
