<svg width="238" height="168" viewBox="0 0 238 168" fill="none" xmlns="http://www.w3.org/2000/svg">
<path d="M238 56C238 41.1869 232.099 26.9772 221.59 16.4817C211.08 5.9861 196.817 0.0597302 181.924 0H125.622C110.808 0.178252 96.6611 6.15677 86.2492 16.6396C75.8372 27.1223 69.9989 41.2645 70 56V56C69.9989 70.7355 75.8372 84.8777 86.2492 95.3604C96.6611 105.843 110.808 111.822 125.622 112V112H70V168H181.924C196.817 167.94 211.08 162.014 221.59 151.518C232.099 141.023 238 126.813 238 112V112C238 97.1869 232.099 82.9772 221.59 72.4817C211.08 61.9861 196.817 56.0597 181.924 56H238Z" fill="black"/>
<path d="M56 0C41.1479 0 26.904 5.89997 16.402 16.402C5.89997 26.904 0 41.1479 0 56V56V168C14.8521 168 29.096 162.1 39.598 151.598C50.1 141.096 56 126.852 56 112V112V0Z" fill="black"/>
</svg>
