<svg width="614" height="169" viewBox="0 0 614 169" fill="none" xmlns="http://www.w3.org/2000/svg">
<path d="M111.924 0H55.6216C40.8076 0.179313 26.6611 6.19353 16.2492 16.7387C5.83722 27.2839 -0.00108385 41.5101 1.50924e-07 56.3333V56.3333V112.667C-0.00108385 127.49 5.83722 141.716 16.2492 152.261C26.6611 162.806 40.8076 168.821 55.6216 169H111.924C126.817 168.94 141.08 162.978 151.59 152.42C162.099 141.862 168 127.568 168 112.667V112.667V56.3333C168 41.4321 162.099 27.1378 151.59 16.5798C141.08 6.02173 126.817 0.0600857 111.924 0V0ZM111.697 56.3333V107.742C110.474 93.8295 104.128 80.8679 93.8925 71.372C83.6567 61.8761 70.2604 56.523 56.3027 56.3515V56.3515L111.697 56.3333Z" fill="black"/>
<path d="M293.697 0V51.4031C292.474 37.4921 286.128 24.5319 275.892 15.037C265.657 5.54213 252.26 0.18966 238.303 0.0181878V0.0181878H182V169H238.303V121.431C240.384 134.649 247.102 146.694 257.252 155.409C267.402 164.123 280.322 168.938 293.697 168.991H293.924C308.817 168.931 323.08 162.97 333.59 152.413C344.099 141.856 350 127.563 350 112.664V112.664V56.3364C350.001 48.9386 348.546 41.613 345.717 34.778C342.888 27.943 338.741 21.7326 333.513 16.5011C328.284 11.2697 322.077 7.11984 315.246 4.28856C308.414 1.45728 301.092 -9.62248e-08 293.697 0V0Z" fill="black"/>
<path d="M420.341 112.667V56.3333C420.341 41.3928 414.405 27.0642 403.839 16.4997C393.273 5.93514 378.943 0 364 0V0V112.667C363.999 127.49 369.841 141.716 380.26 152.261C390.679 162.806 404.835 168.821 419.659 169H476C476.001 154.177 470.159 139.951 459.74 129.405C449.321 118.86 435.165 112.846 420.341 112.667V112.667Z" fill="black"/>
<path d="M614 0C599.156 0 584.921 5.93514 574.425 16.4997C563.929 27.0642 558.032 41.3928 558.032 56.3333H502.968V0C488.124 0 473.888 5.93514 463.393 16.4997C452.897 27.0642 447 41.3928 447 56.3333V56.3333C446.999 71.1565 452.802 85.3829 463.152 95.9281C473.502 106.473 487.565 112.487 502.291 112.667V169H558.258V112.667C573.062 112.607 587.24 106.645 597.687 96.0869C608.135 85.5289 614 71.2346 614 56.3333V56.3333V0Z" fill="black"/>
</svg>
