<svg width="456" height="168" viewBox="0 0 456 168" fill="none" xmlns="http://www.w3.org/2000/svg">
<path d="M111.924 0H55.6216C40.8076 0.178252 26.6611 6.15677 16.2492 16.6396C5.83722 27.1223 -0.00108385 41.2645 1.50924e-07 56H55.6216V112C55.6216 126.852 61.5535 141.096 72.1123 151.598C82.6711 162.1 96.9919 168 111.924 168V56C126.817 55.9403 141.08 50.0139 151.59 39.5183C162.099 29.0228 168 14.8131 168 0H111.924Z" fill="black"/>
<path d="M331 0C316.156 0 301.921 5.89997 291.425 16.402C280.929 26.904 275.032 41.1479 275.032 56H219.968V0C205.124 0 190.888 5.89997 180.393 16.402C169.897 26.904 164 41.1479 164 56V168C178.844 168 193.079 162.1 203.575 151.598C214.071 141.096 219.968 126.852 219.968 112H275.032V168C289.876 168 304.112 162.1 314.607 151.598C325.103 141.096 331 126.852 331 112V0Z" fill="black"/>
<path d="M456 0H345V168H400.608C415.318 167.943 429.407 162.017 439.789 151.522C450.171 141.026 456 126.815 456 112H400.608C415.318 111.943 429.407 106.017 439.789 95.5215C450.171 85.0257 456 70.8146 456 56H400.608C415.318 55.9426 429.407 50.0174 439.789 39.5215C450.171 29.0257 456 14.8146 456 0Z" fill="black"/>
</svg>
